<svg width="512" height="512" viewBox="0 0 512 512" fill="none" xmlns="http://www.w3.org/2000/svg">
<path d="M480 128C480 111.026 473.257 94.7475 461.255 82.7452C449.252 70.7428 432.974 64 416 64H400V48.45C400 39.84 393.38 32.45 384.77 32.02C382.607 31.9158 380.445 32.2518 378.415 33.0079C376.385 33.7639 374.53 34.9241 372.962 36.4182C371.394 37.9123 370.146 39.7092 369.293 41.7001C368.44 43.6909 368 45.8341 368 48V64H144V48.45C144 39.84 137.38 32.45 128.77 32.02C126.607 31.9158 124.445 32.2518 122.415 33.0079C120.385 33.7639 118.53 34.9241 116.962 36.4182C115.394 37.9123 114.146 39.7092 113.293 41.7001C112.44 43.6909 112 45.8341 112 48V64H96C79.0261 64 62.7475 70.7428 50.7452 82.7452C38.7428 94.7475 32 111.026 32 128V140C32 141.061 32.4214 142.078 33.1716 142.828C33.9217 143.579 34.9391 144 36 144H476C477.061 144 478.078 143.579 478.828 142.828C479.579 142.078 480 141.061 480 140V128ZM32 416C32 432.974 38.7428 449.252 50.7452 461.255C62.7475 473.257 79.0261 480 96 480H416C432.974 480 449.252 473.257 461.255 461.255C473.257 449.252 480 432.974 480 416V179C480 178.204 479.684 177.441 479.121 176.879C478.559 176.316 477.796 176 477 176H35C34.2044 176 33.4413 176.316 32.8787 176.879C32.3161 177.441 32 178.204 32 179V416ZM376 208C380.747 208 385.387 209.408 389.334 212.045C393.28 214.682 396.357 218.43 398.173 222.816C399.99 227.201 400.465 232.027 399.539 236.682C398.613 241.338 396.327 245.614 392.971 248.971C389.614 252.327 385.338 254.613 380.682 255.539C376.027 256.465 371.201 255.99 366.816 254.173C362.43 252.357 358.682 249.28 356.045 245.334C353.408 241.387 352 236.747 352 232C352 225.635 354.529 219.53 359.029 215.029C363.53 210.529 369.635 208 376 208ZM376 288C380.747 288 385.387 289.408 389.334 292.045C393.28 294.682 396.357 298.43 398.173 302.816C399.99 307.201 400.465 312.027 399.539 316.682C398.613 321.338 396.327 325.614 392.971 328.971C389.614 332.327 385.338 334.613 380.682 335.539C376.027 336.465 371.201 335.99 366.816 334.173C362.43 332.357 358.682 329.28 356.045 325.334C353.408 321.387 352 316.747 352 312C352 305.635 354.529 299.53 359.029 295.029C363.53 290.529 369.635 288 376 288ZM296 208C300.747 208 305.387 209.408 309.334 212.045C313.28 214.682 316.357 218.43 318.173 222.816C319.99 227.201 320.465 232.027 319.539 236.682C318.613 241.338 316.327 245.614 312.971 248.971C309.614 252.327 305.338 254.613 300.682 255.539C296.027 256.465 291.201 255.99 286.816 254.173C282.43 252.357 278.682 249.28 276.045 245.334C273.408 241.387 272 236.747 272 232C272 225.635 274.529 219.53 279.029 215.029C283.53 210.529 289.635 208 296 208ZM296 288C300.747 288 305.387 289.408 309.334 292.045C313.28 294.682 316.357 298.43 318.173 302.816C319.99 307.201 320.465 312.027 319.539 316.682C318.613 321.338 316.327 325.614 312.971 328.971C309.614 332.327 305.338 334.613 300.682 335.539C296.027 336.465 291.201 335.99 286.816 334.173C282.43 332.357 278.682 329.28 276.045 325.334C273.408 321.387 272 316.747 272 312C272 305.635 274.529 299.53 279.029 295.029C283.53 290.529 289.635 288 296 288ZM296 368C300.747 368 305.387 369.408 309.334 372.045C313.28 374.682 316.357 378.43 318.173 382.816C319.99 387.201 320.465 392.027 319.539 396.682C318.613 401.338 316.327 405.614 312.971 408.971C309.614 412.327 305.338 414.613 300.682 415.539C296.027 416.465 291.201 415.99 286.816 414.173C282.43 412.357 278.682 409.28 276.045 405.334C273.408 401.387 272 396.747 272 392C272 385.635 274.529 379.53 279.029 375.029C283.53 370.529 289.635 368 296 368ZM216 288C220.747 288 225.387 289.408 229.334 292.045C233.28 294.682 236.357 298.43 238.173 302.816C239.99 307.201 240.465 312.027 239.539 316.682C238.613 321.338 236.327 325.614 232.971 328.971C229.614 332.327 225.338 334.613 220.682 335.539C216.027 336.465 211.201 335.99 206.816 334.173C202.43 332.357 198.682 329.28 196.045 325.334C193.408 321.387 192 316.747 192 312C192 305.635 194.529 299.53 199.029 295.029C203.53 290.529 209.635 288 216 288ZM216 368C220.747 368 225.387 369.408 229.334 372.045C233.28 374.682 236.357 378.43 238.173 382.816C239.99 387.201 240.465 392.027 239.539 396.682C238.613 401.338 236.327 405.614 232.971 408.971C229.614 412.327 225.338 414.613 220.682 415.539C216.027 416.465 211.201 415.99 206.816 414.173C202.43 412.357 198.682 409.28 196.045 405.334C193.408 401.387 192 396.747 192 392C192 385.635 194.529 379.53 199.029 375.029C203.53 370.529 209.635 368 216 368ZM136 288C140.747 288 145.387 289.408 149.334 292.045C153.28 294.682 156.357 298.43 158.173 302.816C159.99 307.201 160.465 312.027 159.539 316.682C158.613 321.338 156.327 325.614 152.971 328.971C149.614 332.327 145.338 334.613 140.682 335.539C136.027 336.465 131.201 335.99 126.816 334.173C122.43 332.357 118.682 329.28 116.045 325.334C113.408 321.387 112 316.747 112 312C112 305.635 114.529 299.53 119.029 295.029C123.53 290.529 129.635 288 136 288ZM136 368C140.747 368 145.387 369.408 149.334 372.045C153.28 374.682 156.357 378.43 158.173 382.816C159.99 387.201 160.465 392.027 159.539 396.682C158.613 401.338 156.327 405.614 152.971 408.971C149.614 412.327 145.338 414.613 140.682 415.539C136.027 416.465 131.201 415.99 126.816 414.173C122.43 412.357 118.682 409.28 116.045 405.334C113.408 401.387 112 396.747 112 392C112 385.635 114.529 379.53 119.029 375.029C123.53 370.529 129.635 368 136 368Z" fill="white"/>
</svg>
