<svg width="512" height="512" viewBox="0 0 512 512" fill="none" xmlns="http://www.w3.org/2000/svg">
<path d="M144 464C139.757 464 135.687 462.314 132.686 459.314C129.686 456.313 128 452.243 128 448V384H104C84.9109 383.979 66.6097 376.386 53.1117 362.888C39.6137 349.39 32.0212 331.089 32 312V120C32.0212 100.911 39.6137 82.6097 53.1117 69.1117C66.6097 55.6137 84.9109 48.0212 104 48H408C427.089 48.0212 445.39 55.6137 458.888 69.1117C472.386 82.6097 479.979 100.911 480 120V312C479.979 331.089 472.386 349.39 458.888 362.888C445.39 376.386 427.089 383.979 408 384H245.74L154.25 460.29C151.371 462.685 147.745 463.997 144 464V464Z" fill="white"/>
</svg>
