<svg width="512" height="512" viewBox="0 0 512 512" fill="none" xmlns="http://www.w3.org/2000/svg">
<path d="M340.75 344.49C346.66 323.79 350.57 299.74 352.06 276.65C352.093 276.047 352.002 275.443 351.792 274.877C351.582 274.31 351.258 273.793 350.839 273.357C350.421 272.921 349.918 272.576 349.361 272.342C348.804 272.109 348.204 271.992 347.6 272H276.54C275.958 271.995 275.381 272.104 274.842 272.322C274.302 272.54 273.811 272.862 273.396 273.269C272.981 273.677 272.65 274.162 272.423 274.698C272.195 275.233 272.075 275.808 272.07 276.39V331.69C272.083 332.807 272.516 333.878 273.283 334.69C274.051 335.502 275.096 335.995 276.21 336.07C296.236 337.688 316.022 341.508 335.21 347.46C336.339 347.799 337.556 347.677 338.594 347.121C339.633 346.564 340.408 345.618 340.75 344.49V344.49ZM323.58 377.31C308.357 372.865 292.758 369.823 276.98 368.22C276.371 368.152 275.754 368.211 275.169 368.395C274.583 368.578 274.043 368.881 273.581 369.284C273.119 369.688 272.746 370.183 272.486 370.738C272.226 371.294 272.084 371.897 272.07 372.51V437.75C272.094 438.528 272.321 439.287 272.728 439.95C273.135 440.614 273.709 441.16 274.392 441.534C275.075 441.907 275.844 442.096 276.622 442.082C277.401 442.067 278.162 441.849 278.83 441.45C294.73 432.18 307.83 416.61 319.67 396.02C321.61 392.66 324.56 386.87 326.34 383.33C326.617 382.761 326.764 382.137 326.771 381.504C326.778 380.871 326.644 380.244 326.381 379.669C326.117 379.093 325.729 378.584 325.245 378.176C324.761 377.768 324.192 377.472 323.58 377.31V377.31ZM235.29 368.4C219.532 369.899 203.945 372.852 188.73 377.22C186.09 377.98 184.98 381.62 186.18 384.01C187.97 387.57 190.18 392.12 192.07 395.52C205.07 418.52 218.91 433.02 233.31 441.45C233.979 441.849 234.74 442.067 235.518 442.082C236.297 442.096 237.066 441.907 237.749 441.534C238.431 441.16 239.005 440.614 239.412 439.95C239.819 439.287 240.046 438.528 240.07 437.75V372.48C240.065 371.884 239.933 371.296 239.681 370.756C239.429 370.216 239.064 369.736 238.611 369.349C238.158 368.963 237.627 368.678 237.054 368.514C236.481 368.35 235.879 368.311 235.29 368.4V368.4ZM235.6 272H164.54C163.937 271.992 163.339 272.109 162.782 272.341C162.226 272.574 161.723 272.919 161.305 273.354C160.887 273.789 160.562 274.305 160.352 274.87C160.141 275.435 160.049 276.038 160.08 276.64C161.56 299.7 165.45 323.8 171.34 344.48C171.507 345.046 171.785 345.573 172.157 346.031C172.529 346.489 172.989 346.868 173.509 347.147C174.029 347.426 174.599 347.599 175.186 347.657C175.773 347.714 176.366 347.654 176.93 347.48C196.117 341.528 215.905 337.718 235.93 336.12C237.047 336.047 238.094 335.555 238.864 334.743C239.633 333.931 240.068 332.859 240.08 331.74V276.4C240.076 275.817 239.957 275.24 239.73 274.702C239.502 274.165 239.171 273.678 238.754 273.269C238.338 272.86 237.845 272.538 237.304 272.32C236.763 272.102 236.184 271.993 235.6 272V272ZM277 143.78C292.768 142.303 308.346 139.24 323.5 134.64C324.108 134.476 324.673 134.18 325.154 133.773C325.635 133.366 326.021 132.858 326.285 132.286C326.548 131.714 326.682 131.09 326.678 130.46C326.674 129.83 326.531 129.209 326.26 128.64C324.47 125.07 321.99 119.96 320.09 116.55C307.8 94.55 293.95 79.2 278.85 70.55C278.181 70.1539 277.421 69.9387 276.643 69.9255C275.866 69.9124 275.099 70.1017 274.417 70.475C273.735 70.8483 273.162 71.3926 272.754 72.0545C272.346 72.7164 272.117 73.473 272.09 74.25V139.48C272.105 140.093 272.246 140.697 272.506 141.253C272.766 141.809 273.139 142.305 273.6 142.709C274.062 143.113 274.603 143.417 275.188 143.601C275.773 143.786 276.39 143.847 277 143.78V143.78ZM276.54 240H347.6C348.199 240.01 348.793 239.898 349.347 239.67C349.901 239.441 350.402 239.102 350.82 238.673C351.237 238.244 351.563 237.734 351.776 237.175C351.99 236.615 352.086 236.018 352.06 235.42C350.58 212.65 346.79 187.62 340.9 167.2C340.728 166.639 340.447 166.117 340.072 165.664C339.698 165.212 339.237 164.838 338.718 164.564C338.199 164.29 337.63 164.121 337.045 164.067C336.461 164.013 335.871 164.075 335.31 164.25C316.31 169.99 296.52 174.68 276.22 176.25C275.111 176.313 274.066 176.793 273.297 177.595C272.527 178.396 272.089 179.459 272.07 180.57V235.68C272.091 236.845 272.574 237.955 273.412 238.764C274.25 239.574 275.375 240.019 276.54 240V240ZM233.31 70.56C217.89 79.13 204.14 94.99 191.84 116.93C189.93 120.34 187.65 125.04 185.84 128.6C185.571 129.169 185.43 129.79 185.427 130.42C185.423 131.049 185.558 131.672 185.821 132.244C186.084 132.816 186.469 133.323 186.949 133.73C187.43 134.137 187.993 134.434 188.6 134.6C203.748 139.285 219.348 142.359 235.14 143.77C235.749 143.837 236.366 143.776 236.95 143.592C237.535 143.409 238.075 143.105 238.536 142.702C238.998 142.299 239.371 141.805 239.631 141.25C239.892 140.695 240.035 140.093 240.05 139.48V74.26C240.019 73.4872 239.788 72.7356 239.381 72.0782C238.973 71.4207 238.403 70.8797 237.725 70.5075C237.047 70.1353 236.284 69.9445 235.511 69.9537C234.737 69.9629 233.979 70.1718 233.31 70.56V70.56ZM235.92 176.26C215.62 174.71 195.81 170.02 176.83 164.26C176.27 164.085 175.68 164.023 175.095 164.077C174.51 164.131 173.942 164.3 173.422 164.574C172.903 164.848 172.443 165.222 172.068 165.674C171.694 166.127 171.413 166.649 171.24 167.21C165.35 187.63 161.56 212.66 160.08 235.43C160.054 236.028 160.151 236.625 160.364 237.185C160.578 237.744 160.903 238.254 161.321 238.683C161.739 239.112 162.24 239.451 162.793 239.68C163.347 239.908 163.942 240.02 164.54 240.01H235.6C236.179 240.019 236.754 239.914 237.292 239.701C237.83 239.488 238.32 239.171 238.736 238.767C239.151 238.364 239.483 237.883 239.712 237.352C239.941 236.82 240.062 236.249 240.07 235.67V180.58C240.052 179.469 239.614 178.406 238.844 177.605C238.074 176.803 237.03 176.323 235.92 176.26Z" fill="white"/>
<path d="M414.39 97.61C393.627 76.6416 368.926 59.9823 341.705 48.5892C314.484 37.1961 285.28 31.2936 255.772 31.221C226.263 31.1484 197.03 36.907 169.754 48.166C142.477 59.425 117.694 75.9625 96.8283 96.8284C75.9624 117.694 59.4249 142.477 48.1659 169.754C36.9069 197.031 31.1483 226.263 31.2209 255.772C31.2935 285.28 37.196 314.484 48.5891 341.705C59.9822 368.926 76.6415 393.627 97.6099 414.39C118.373 435.358 143.074 452.018 170.295 463.411C197.516 474.804 226.719 480.706 256.228 480.779C285.737 480.852 314.969 475.093 342.246 463.834C369.522 452.575 394.306 436.038 415.172 415.172C436.037 394.306 452.575 369.523 463.834 342.246C475.093 314.97 480.852 285.737 480.779 256.228C480.706 226.72 474.804 197.516 463.411 170.295C452.018 143.074 435.358 118.373 414.39 97.61V97.61ZM176.6 430.85C172.094 424.523 167.928 417.96 164.12 411.19C162.12 407.5 159.28 401.93 157.39 398.06C156.957 397.142 156.336 396.325 155.569 395.66C154.802 394.996 153.904 394.499 152.933 394.201C151.963 393.904 150.941 393.812 149.933 393.933C148.925 394.053 147.953 394.382 147.08 394.9C142.78 397.31 137.08 400.62 132.95 403.33C124.289 396.747 116.384 389.224 109.38 380.9C119.066 374.063 129.229 367.928 139.79 362.54C141.65 361.54 142.56 360.4 141.97 358.36C134.232 331.579 129.506 304.019 127.88 276.19C127.831 275.077 127.359 274.025 126.559 273.25C125.76 272.474 124.694 272.034 123.58 272.02H66.8399C66.3576 272.025 65.8895 271.856 65.522 271.544C65.1545 271.232 64.9122 270.797 64.8399 270.32C64.2114 265.574 63.9307 260.787 63.9999 256C63.9315 251.222 64.219 246.445 64.8599 241.71C64.9322 241.233 65.1745 240.798 65.542 240.486C65.9095 240.174 66.3776 240.005 66.8599 240.01H123.6C125.89 240.01 127.77 238.69 127.89 236.38C129.495 208.667 134.19 181.22 141.89 154.55C142.177 153.577 142.115 152.533 141.715 151.601C141.315 150.668 140.603 149.904 139.7 149.44C129.366 144.145 119.397 138.165 109.86 131.54C116.827 123.218 124.576 115.583 133 108.74C137.08 111.42 142.4 114.45 146.66 116.85C147.599 117.384 148.637 117.719 149.711 117.835C150.784 117.951 151.87 117.846 152.901 117.525C153.933 117.204 154.887 116.676 155.705 115.971C156.524 115.267 157.189 114.402 157.66 113.43C159.54 109.56 161.66 105.25 163.72 101.55C167.545 94.6963 171.731 88.0503 176.26 81.64C201.194 69.8933 228.438 63.8665 256 64C284.94 64 311.9 71 336.53 82.46C340.879 88.566 344.885 94.9092 348.53 101.46C351.12 106.12 353.87 111.83 356.19 116.78C356.439 117.307 356.793 117.778 357.23 118.164C357.667 118.549 358.179 118.842 358.733 119.024C359.287 119.205 359.872 119.272 360.453 119.22C361.033 119.167 361.597 118.997 362.11 118.72C367.49 115.81 373.32 112.46 378.45 109.09C386.898 116 394.667 123.702 401.65 132.09C392.374 138.523 382.664 144.307 372.59 149.4C371.686 149.864 370.972 150.631 370.574 151.566C370.176 152.501 370.118 153.546 370.41 154.52C378.234 181.009 382.884 208.334 384.26 235.92C384.314 237.026 384.789 238.07 385.589 238.837C386.389 239.603 387.452 240.034 388.56 240.04L445.18 239.97C445.662 239.965 446.13 240.134 446.498 240.446C446.865 240.758 447.108 241.193 447.18 241.67C448.346 251.174 448.346 260.786 447.18 270.29C447.112 270.771 446.872 271.21 446.504 271.526C446.136 271.843 445.665 272.015 445.18 272.01H388.51C387.395 272.022 386.328 272.461 385.528 273.237C384.728 274.013 384.256 275.066 384.21 276.18C382.653 303.715 378 330.987 370.34 357.48C370.05 358.465 370.11 359.52 370.509 360.466C370.908 361.412 371.622 362.19 372.53 362.67C377.53 365.26 383.1 368.15 387.9 371.09C392.7 374.03 397.45 377.17 402.03 380.43C395.1 388.779 387.4 396.456 379.03 403.36C376.59 401.75 373.69 399.92 371.19 398.42C369.47 397.42 366.3 395.65 364.54 394.66C360.72 392.52 356.66 394.12 354.75 398.06C352.84 402 349.92 407.65 347.88 411.31C344.121 418.039 339.998 424.559 335.53 430.84C310.91 442.37 284.94 448 256 448C227.06 448 201.23 442.37 176.6 430.85Z" fill="white"/>
</svg>
